<svg version="1" xmlns="http://www.w3.org/2000/svg" width="682.667" height="682.667" viewBox="0 0 512.000000 512.000000"><path d="M78.9 207c0 1.4-.1 24.3-.2 51v48.5l10.4.3 10.5.3-.2-32.8c-.1-18-.2-36.3-.4-40.6-.2-4.2 0-8.1.4-8.5.4-.4.6-.2.5.3-.5 1.9 2.3 13 5.6 22 1.9 4.9 6.8 18.9 11.1 31 4.2 12.1 8.2 23.5 9 25.2l1.3 3.3h18.8l1-3.3c.6-1.7 4.9-14.2 9.6-27.7 4.6-13.5 9.6-27.9 11-32 1.5-4.1 3.2-10.2 4-13.5 1.2-5.3 1.3-1.4 1.2 35.3l-.1 41.2H195l-.2-51.2-.3-51.2-15.9.1c-8.7.1-16 .4-16.2.6-.8.7-20.6 58.3-22.9 66.2l-2.2 8-1.2-4.5c-1.8-6.7-22.9-69-23.7-69.9-.2-.2-7.8-.4-16.9-.5l-16.5-.1-.1 2.5zM244 205.5c-.7 1-2.2 4.8-9.5 25-1.8 4.9-8.7 24-15.4 42.3-6.6 18.3-12.1 33.4-12.1 33.7 0 .3 5.5.5 12.3.5h12.3l3.7-11.3 3.7-11.3 17.8-.1c11.9 0 17.9.3 18.4 1.1.4.6 2.2 5.7 3.9 11.3l3.2 10.3h12.4c6.8 0 12.3-.4 12.3-.9 0-.7-10.3-30.1-26.2-74.6-2.8-7.7-6-16.8-7.1-20.3l-2.1-6.2-4.1-.1c-2.2 0-8.2-.1-13.3-.2-5.3-.1-9.7.2-10.2.8zm13.6 19.3c-.6 1 1.2 7.5 6.9 25.2 2.5 8 4.8 15 5 15.6.2.7-3.9 1-12.4.9-14.8 0-13.9 2.2-7.4-18 2.5-7.7 5-15.8 5.5-18 1.4-5.8 1.7-6.5 2.3-6.5.4 0 .4.3.1.8zM376.9 205.2c-1.6.6-1.9 1.8-2 7-.1 3.5-.3 7.4-.4 8.8-.3 2.7-1.2 14.9-2.1 30.6l-.6 10.1 4.3-.3c18.5-1.3 26.4-.1 31.6 4.7 5.7 5.4 4.4 16.9-2.4 21.7-7.2 5.1-20.4 4.7-31.5-1L370 285V304.7l4.3 1.2c12.2 3.3 22.8 3.8 32.3 1.6 17.2-4 27.8-16.9 27.5-33.8 0-7.7-.4-9.5-2.9-14.3-3-5.8-7.8-10.3-14-13.2-4.6-2.1-7.3-2.5-15.6-2.8l-10.1-.2.3-5.9c.2-3.2.5-7.2.7-8.8.2-1.7.3-3.6.4-4.3.1-.9 4.5-1.2 18.4-1.2h18.3l.2-9 .2-9h-2.8c-29-.5-48.7-.4-50.3.2zM315 256v8h19.5c17.9 0 19.5-.1 19.6-1.8.1-.9.1-4.4.2-7.7v-6l-19.7-.3-19.6-.2v8z"/></svg>